<?xml version="1.0" encoding="UTF-8"?>
<svg version="1.1" viewBox="0 0 1348 856" width="1280" height="1280" xmlns="http://www.w3.org/2000/svg">
<path transform="translate(1065,173)" d="m0 0h30l1 1v7l-9 7-7 8-5 9-4 10-3 15-1 41-3 18-3 10 11 3 6 1h20l9-4 9-6 5 1 1 1v7l-4 13-7 13-10 10-10 5-6 1h-9l-14-3-23-9-14-3-12 2-7 4-17 17-7 8-8 8-7 8-2 2 27 1 18 4 16 6 31 16 12 3h11l14-5h6l1 1v5l-8 8-15 11-11 7-17 7-17 3h-10l-20-3-51-15-15-3h-20l-14 5-30 20-5 4 16 3 20 7 21 12 20 13 15 9 15 7 17 5 13 1 15-3 13-7 3-2 7 1 1 5-7 8-14 11-13 11-19 12-18 8-19 5h-28l-16-4-16-6-20-11-17-11-16-10-19-10-20-7-17-3-13 1-31 9-15 4h-12l-1-5 4-3 43-13 24-9 11-6 11-12 7-15 3-9 3-15v-33l-3-37v-26l2-14 6-20 8-16 7-11 11-13 7-8 14-11 14-10 8-4 5 1 1 1v5l-9 11-6 10-5 17-1 6v27l4 33 2 19v18l-2 18-5 20-8 18-6 12-5 8 11-6 19-13 13-11 7-9 7-11 5-11 5-15 3-14 1-17v-44l2-14 5-17 8-15 8-10 12-12 5-3h7l1 1-1 9-4 10v22l4 23 5 22 2 12v20l5-5 9-10 9-11 7-11 4-13 1-6-1-21-3-27v-19l3-13 6-11 9-9 14-8 14-4zm2 10-15 4-12 6-5 4-6 8-4 9-1 5v19l3 32v20l-3 14v3h2l8-13 5-12 1-5 1-44 3-14 7-14 9-11 11-9v-2zm-2 11-9 10-8 16-3 14-1 39-3 14-8 16-5 7-4 3v3l7-1 11-8 7-8 4-9 3-10 1-17v-25l2-15 4-16 4-10v-3zm-108 60-2 6v44l3 27v37l5-3 7-11 2-5 1-6v-19l-4-23-8-37-2-10zm-95 1-9 10-10 15-8 15-7 19-2 14v27l3 40v26l-3 19-8 22-1 6 5-2 4-5 8-16 6-14 6-20 3-14 2-15v-32l-1-14v-32l4-21 7-19 4-9zm88 2-8 19-2 9-1 10v44l-1 16-5 23-8 19 1 2 8-7 9-8 8-7 2-8 2-11v-22l-5-42v-21l2-16zm-82 1-6 12-6 22-2 13-1 16 2 33v23l-2 18-5 22-6 18-7 16v3l4-2 8-9 12-19 5-11 6-17 3-14 1-9v-25l-4-33-2-19v-23l1-15zm184 51-1 4 9 3 23 4h7l13-4-1-4-8 1h-15l-21-4zm-8 8-3 2 2 4 28 10 8 2 8-1 9-5 6-7-1-2-9 3h-14l-17-3-14-3zm-79 71-14 3-10 6-1 2 3 1 26 2 21 5 32 10 17 3h26l-3-3-15-6-17-9-18-8-15-4-15-2zm-24 16-13 4-2 3 6 2 23 4 20 6 25 8 19 4h20l18-6 6-3 1-2-26-1-14-2-40-12-23-5zm-91 59-14 5v3l29 13 19 10 16 9 16 8 22 9 15 4 7 1h24l17-1-3-3-19-5-19-7-21-12-24-16-12-7-17-7-16-4zm-22 11-9 3-16 7-4 2 4 3 26 10 22 12 19 12 20 12 16 8 14 5 12 2h17l15-3 13-5 15-8 8-6-4-1-18 2h-12l-23-4-18-6-33-16-26-14-17-8-16-6z" fill="#C1A36A"/>
<path transform="translate(269,173)" d="m0 0h29l16 4 14 7 10 8 6 9 4 9 2 14-1 17-3 31v17l3 13 7 13 13 14 9 11 1 1 2-22 10-47 1-20-2-15-3-8v-5l1-1h6l9 6 10 10 7 10 8 16 4 13 2 14 1 54 2 16 5 18 9 19 8 11 9 10 15 11 22 14-1-3-10-17-8-20-5-21-1-7v-32l6-48v-19l-3-20-5-12-7-11-7-8 1-4 3-2 5 1 10 6 11 8 11 9 12 12 11 15 7 12 8 20 4 18 1 13-1 30-2 20-1 29 2 18 5 17 7 14 8 10 11 7 27 10 29 9 15 4 2 5-1 4h-7l-27-7-23-7-10-1-14 1-16 5-17 7-23 13-20 13-21 12-17 7-15 4-20 1-16-2-18-6-16-8-11-7-14-11-16-13-8-7v-6l3-4 5 2 9 6 11 4 15 2 17-3 16-6 21-12 27-18 17-9 18-6 15-3v-2l-12-7-21-14-12-5-5-1h-19l-15 3-20 6-27 8-14 3-8 1h-12l-18-3-13-6-16-10-11-9-7-6-1-4 1-4h7l5 3 10 2h11l11-4 31-16 21-7 13-2 25-1-12-13-7-8-7-7-7-8-3-3v-2l-4-2-4-3-6-2-9-1-12 2-29 11-12 2-15-1-10-6-9-10-7-14-3-10v-8l4-2 16 9 5 1h21l15-3-4-14-2-13-2-48-4-16-6-12-11-12-6-6v-5zm23 10 4 5 9 7 3 4h2l2 5 6 11 3 9 1 6 1 43 3 13 8 16 3 4 2-1-2-10v-30l3-27v-17l-4-13-5-8-9-8-10-5-17-4zm5 12 1 5 5 15 2 11 1 11 1 37 3 15 3 8 7 9 8 6 9 4h3l-2-4-7-8-9-19-3-13-1-42-3-12-5-10-8-10-3-3zm107 58-5 30-7 30-1 6v27l3 8 7 12 4 2v-25l2-24 1-9 1-37-1-13-3-7zm94 2 9 20 4 13 3 20v24l-2 35 2 24 3 17 9 29 10 22 7 8 5 1-9-23-4-19v-38l3-39v-12l-2-20-5-17-8-16-7-11-11-14-4-4zm-5 1 3 20v18l-6 49v33l3 17 7 21 8 16 8 11 5 7h2l2 4 4 3 2-1-8-16-6-17-5-19-3-20v-31l1-18v-22l-2-19-5-17-8-19zm-82 1 2 12 1 16-2 22-3 26v30l3 12 7 8 11 9 7 6-2-9-7-21-3-20-1-59-4-17-6-13zm-104 51-23 5h-24v2l9 4 4 1h10l18-3 11-3 1-2-4-4zm5 10-20 4-13 1-17-1 3 5 9 6 4 2h8l17-5 14-6 5-2v-3l-1-1zm69 70-19 3-16 5-36 18-12 4v1l5 1h24l20-5 32-10 20-4 23-1-3-5-10-5-16-2zm21 16-21 4-29 9-17 5-10 1-25 1 4 4 17 6 5 1h18l23-5 34-11 18-4 18-3-2-4-12-4zm92 59-17 4-18 8-17 10-17 11-15 9-19 9-28 8-3 3 8 7 19 10 16 6 12 2h19l16-4 16-7 15-8 19-12 15-9 18-10 15-6 17-6v-2l-28-12-8 1-24 10-16 8-34 18-18 8-21 7-17 3h-15l-19-2-2-3 14 1h26l17-3 19-7 18-8 22-12 23-12 20-9 6-3 1-2-13-5-4-1z" fill="#C1A26A"/>
<path transform="translate(507,275)" d="m0 0 2 3 3 10 3 20v24l-2 35 2 24 3 17 9 29 7 16h-5l-8-17-6-18-4-16-3-20v-31l1-18v-22l-2-19-2-10z" fill="#E3D3B5"/>
<path transform="translate(841,473)" d="m0 0 9 3 25 12 18 10 25 13 20 8 15 4 7 1 23 1 13 2v1l-18 2h-12l-23-4-18-6-33-16-26-14-17-8-16-6-4-2h12z" fill="#CAB07F"/>
<path transform="translate(852,287)" d="m0 0h1l1 8 2-7 1 4-2 13-1 16 2 33v23l-2 18-5 22-6 18-2 5-2-2-2 1 1-6 6-18 4-18 2-15v-32l-1-14v-32z" fill="#C8AD7A"/>
<path transform="translate(520,474)" d="m0 0 9 1-3 2-30 13-22 12-23 12-17 7-18 6-17 3h-15l-19-2-2-4h40l17-3 19-7 18-8 22-12 23-12z" fill="#C7AB78"/>
<path transform="translate(951,261)" d="m0 0 3 2 1 3 1 38 3 27v35l-5 5-2 3 1-11 1-5v-22l-5-42v-21z" fill="#E3D2B3"/>
<path transform="translate(310,201)" d="m0 0 4 4 6 12 3 13 1 43 3 13 8 16 4 5h-2l-1 4-6-7-9-19-3-13-1-42-3-12-3-6v-2h2z" fill="#E1CFAF"/>
<path transform="translate(1042,222)" d="m0 0 5 1-1 11-1 39-3 14-8 16-6 8h-1l-1-6 7-11 5-12 1-5 1-44z" fill="#E6D6B9"/>
<path transform="translate(968,401)" d="m0 0 15 3 29 9 15 4 12 2 22 1v1l-15 1 4 2h-12l-14-2-40-12-23-5h-23l2-2 21-1z" fill="#E7D7BB"/>
<path transform="translate(408,260)" d="m0 0h1l1 9h2v-6h1l2 21-2 23-3 26v35h-3l-1-49 1-9 1-37z" fill="#E9DAC1"/>
<path transform="translate(399,400)" d="m0 0h5l-2 2 21 1v1l-21 1-21 4-29 9-17 5h-5l-1-1-7-1v-1l25-6 32-10z" fill="#CAAF7E"/>
<path transform="translate(918,512)" d="m0 0 5 1 15 6 15 4 7 1 23 1 13 2v1l-18 2h-12l-23-4-18-6-6-3z" fill="#C9AE7C"/>
<path transform="translate(442,515)" d="m0 0 2 2-18 7-16 4-11 2h-15l-19-2-2-4h40l17-3 11-3h2l7-2z" fill="#E2D1B2"/>
<path transform="translate(852,287)" d="m0 0h1l1 8 2-7 1 4-2 13-1 16 1 23-3-1 1 16-2 2-2-25v-32z" fill="#E5D6B9"/>
<path transform="translate(310,201)" d="m0 0 4 4 6 12 2 7-1 38-1 16h-1l-1-6-1-42-3-12-3-6v-2h2z" fill="#E7D8BD"/>
<path transform="translate(514,396)" d="m0 0 2 3 4 16 8 24 6 14h-5l-8-17-6-18-2-7v-9z" fill="#C8AD7A"/>
<path transform="translate(1050,311)" d="m0 0 1 2 19 4 13 2h7l10-2 1 4-9 3h-14l-17-3-14-3 3-1z" fill="#C9AD7B"/>
<path transform="translate(951,261)" d="m0 0 3 2 1 3v30l-1 3-1 19h-1l-3-24v-21z" fill="#E9DBC2"/>
<path transform="translate(410,299)" d="m0 0h2v16l-2 18v35h-3l-1-49 2-16z" fill="#DDCAA8"/>
<path transform="translate(968,401)" d="m0 0 15 3 10 3 3 3 7 2 1 3-9-2-23-6-11-2h-23l2-2 21-1z" fill="#E7D8BD"/>
<path transform="translate(1063,190)" d="m0 0 3 1 1 3-5 4-6 8-7 14-1 3-5 1 1-7 6-12 9-11z" fill="#D6C099"/>
<path transform="translate(262,316)" d="m0 0 11 3h10l13-2 7 1 4 2-15 3-13 1-13-1-4-2z" fill="#E4D3B5"/>
<path transform="translate(508,362)" d="m0 0 2 4 1 4v-5l2 2 2 29-2 11h-1l-4-25z" fill="#E8D9BE"/>
<path transform="translate(356,411)" d="m0 0 5 1-2 4-24 7h-5l-1-1-7-1v-1l25-6z" fill="#CCB282"/>
<path transform="translate(321,228)" d="m0 0 2 2v50l-2 3-1-1v-32z" fill="#C1A36B"/>
<path transform="translate(966,525)" d="m0 0h17l13 2v1l-18 2h-12l-7-1 1-2h6z" fill="#E7D8BC"/>
<path transform="translate(1050,311)" d="m0 0 1 2 19 4 5 1v1h-7l1 3-8-1-14-3 3-1z" fill="#E8D9BE"/>
<path transform="translate(991,408)" d="m0 0 9 1 22 7 7 2v3l-10-2-15-4-3-3-10-3z" fill="#C4A772"/>
<path transform="translate(406,324)" d="m0 0h1v43l-1 2-2-1v-25l1-16z" fill="#CAB07E"/>
<path transform="translate(442,515)" d="m0 0 2 2-18 7-10 3-3-1 2-1 1-3 13-4 3 1 5-2z" fill="#E8D9BE"/>
<path transform="translate(523,431)" d="m0 0h2l7 17 2 5h-5l-7-15z" fill="#E8D9BE"/>
<path transform="translate(399,400)" d="m0 0h5l-2 2 21 1v1l-21 1-16 2 3-3-2-2z" fill="#E8D9BE"/>
<path transform="translate(841,473)" d="m0 0 9 3 3 4-1 3-15-6-8-2v-1h12z" fill="#E8D9BF"/>
<path transform="translate(1033,294)" d="m0 0m-1 2 1 4h2l-2 5-5 6h-1l-1-6z" fill="#E8D9BF"/>
<path transform="translate(321,228)" d="m0 0 2 2v25h-2l-1-5z" fill="#C3A66F"/>
<path transform="translate(950,524)" d="m0 0h10l6 1v2l-13 1-4-2z" fill="#C3A56E"/>
<path transform="translate(411,523)" d="m0 0h5l-1 3-2 1h-13v-2z" fill="#C5A974"/>
<path transform="translate(331,297)" d="m0 0 8 10h-2l-1 4-5-6z" fill="#E8D9BE"/>
<path transform="translate(1038,289)" d="m0 0h1l-1 7-2 4h-3l1-8z" fill="#D9C59F"/>
<path transform="translate(1048,212)" d="m0 0 2 2-3 9-4 1 1-7 1-3z" fill="#C2A46C"/>
<path transform="translate(520,474)" d="m0 0 9 1-3 2-9 3-1-3z" fill="#E6D7BB"/>
<path transform="translate(1098,317)" d="m0 0h2l1 4-3 1-12-1 4-2z" fill="#E8DABF"/>
<path transform="translate(842,430)" d="m0 0h1l-1 7-2 3-1-2-2 1 1-6z" fill="#D0B78A"/>
<path transform="translate(332,418)" d="m0 0 2 1 1 4h-5l-1-1-7-1v-1z" fill="#E9DBC2"/>
<path transform="translate(474,497)" d="m0 0m-2 1 4 1v2l-7 3-1-4z" fill="#D1B98D"/>
<path transform="translate(441,513)" d="m0 0 2 1-4 4-6 1h-3l6-4z" fill="#C8AD7A"/>
</svg>
