<?xml version="1.0" encoding="UTF-8"?>
<svg version="1.1" viewBox="0 0 2048 1384" width="1280" height="1280" xmlns="http://www.w3.org/2000/svg">
<path transform="translate(508,425)" d="m0 0h17l22 2 18 4 20 7 25 12 23 12 23 14 14 9 22 14 28 15 28 13 18 6 16 4 15 2h14l20-5 50-15 28-7 13-1 3 3 1 2v7l-5 4-58 17-36 12-26 10-14 7-9 7-7 6-9 12-12 23-6 15-6 25-2 13v49l5 63v59l-3 21-5 20-8 23-11 22-11 17-10 13-11 13-9 10-9 9-11 9-14 12-13 8-15 9-10 4-5-1-5-5 1-5 9-10 10-13 11-21 5-15 4-25 1-12v-14l-3-36-7-57-2-25v-32l2-22 4-18 6-21 8-22 8-16 7-12 7-11 6-12-7 4-23 15-19 12-16 12-12 11-9 11-8 10-10 17-11 24-8 24-4 14-2 14-1 15v92l-2 17-5 21-9 24-7 13-11 16-11 13-16 16-12 7-5 1-6-3-2-3 1-6 6-16 3-15v-29l-4-27-12-56-5-29-2-28-4 2-10 10-9 11-10 12-11 14-9 16-5 12-3 14-1 16 3 39 4 36 2 17v9l-3 20-4 15-8 15-11 12-10 9-13 8-21 8-21 5-16 2h-30l-8-2-3-3v-7l4-5 13-10 7-7 9-13 8-17 6-21 2-11 1-11 1-56 2-22 5-25 4-12 2-7-8-1-26-5-8-1h-22l-12 3-12 6-10 8-7 1-7-6 1-10 7-23 8-16 7-11 9-10 11-8 11-5 11-2h11l18 2 18 5 30 12 21 7 10 2 12-1 21-7 11-9 9-11 7-7 7-8 13-13 7-8 7-7 7-8 9-9 1-2-43-1-33-5-27-9-17-8-22-12-16-8-15-7-13-4-7-1-18 1-10 3-16 7-4-1-4-5 1-6 4-6 10-9 16-12 18-12 22-12 17-7 21-5 7-1h24l30 4 23 6 36 12 34 10 22 5 15 2h24l18-4 14-7 16-11 22-14 18-11 7-6 1-2h-9l-17-3-27-9-24-11-18-10-32-21-24-15-18-10-16-8-19-7-16-4-14-2h-20l-18 3-17 7-19 12-5-1-6-9 2-5 6-7 11-9 13-11 14-11 18-14 15-10 15-9 23-12 19-7 19-5zm-9 19-17 3-24 8-21 10-15 9-13 8 2 1 33-2h29l23 3 21 5 18 6 15 6 20 9 19 9 19 10 26 14 19 10 33 16 20 8 12 3h6l34-16 12-5 2-3-8-4-16-5-21-8-22-10-23-13-16-10-17-11-24-15-21-12-25-12-17-6-14-4-13-2zm-92 39m-2 3 1 3 17 8 24 6 21 7 22 11 24 14 17 11 21 13 19 12 20 11 19 8 25 8 22 2h16l16-3 12-5 7-4-3-3-30-13-33-16-25-13-22-12-27-14-32-14-27-9-23-5-10-1h-66zm333 105-10 8-7 9-12 26-10 26-8 27-6 24-5 35-2 28 1 31 3 39v27l-2 24-6 28-9 26-11 21-3 5 1 2 11-8 12-13 14-19 12-21 8-16 7-18 4-14 3-23 1-12v-34l-4-48-2-23-1-22v-24l2-18 5-24 8-24 9-20v-5zm-31 24-8 7-8 10-12 17-9 14-10 19-11 27-6 19-4 22-1 9v44l3 33 5 36 3 30v29l-3 36 4-5 5-7 9-24 5-17 4-22 1-12v-35l-3-50v-31l2-28 5-28 6-25 6-20 7-19 6-13 6-16zm-358 35-20 4-12 4-22 9v1l7 1 27 1 27 3 27 7 44 14 25 7 22 4 8 1h32l18-5 9-5 3-3v-2l-4-1-21-2-26-5-22-6-44-14-34-9-29-4zm-50 26-4 1 1 3 13 6 13 5 25 13 19 10 15 7 21 7 19 4 23 3h26l24-4 12-6 9-7 2-4-36-2-18-2-23-5-34-10-35-11-25-6-19-2zm242 43-9 7-12 11-8 7-10 9-6 8-4 29v38l3 31 5 37 1 13v25l-4 31-2 5 6-2 4-5 10-30 3-13 1-8 1-23v-77l2-23 6-27 8-24 5-13 1-6zm-56 52-10 9-7 11-5 12-3 11-1 6v32l4 25 8 33 5 25 4 25 2 18 6-5 3-13 2-39-1-29-3-25-3-21-1-13v-46l1-7v-9zm-229 61-12 5-12 9-4 5v2l7-1 5-1h19l26 3 29 6 11 3 2 1 8-4 3-3v-2l-14-6-16-6-24-8-15-3zm-13 26-16 8-1 4 11-1 7-1 21 1 36 7 7 3h3l5-3 4-5v-3l-16-3-33-6-8-1zm121 6-17 8-12 9-8 8-7 11-5 11-4 13-2 11-1 11-1 62-2 21-4 20-7 21-6 15 1 2 8-6 8-9 12-19 7-15 5-21v-63l2-18 5-18 7-16 8-15 7-9 8-8 1-5zm0 18-7 8-10 18-7 21-2 10-1 11-1 69-3 14-6 16-9 17-10 13-10 10-14 9-3 4v2h9l14-3 17-6 13-7 10-8 10-10 6-10 6-17 2-15-1-21-6-61v-33l2-16 2-8v-7z" fill="#C0A26F"/>
<path transform="translate(1437,425)" d="m0 0h21l25 3 20 5 20 8 23 12 19 12 21 16 13 10 14 12 10 9 11 9 3 5v7l-4 5-4 1-7-3-13-8-8-4-13-5-19-3h-19l-17 2-18 6-29 14-24 14-26 17-22 13-21 12-21 10-21 7-26 6h-7v2l5 2 10 7 21 13 23 16 19 10 12 3 8 1h24l21-3 27-7 59-19 24-6 20-3 11-1h19l19 3 17 5 18 8 17 10 19 13 11 9 13 11 4 6v8l-2 3-9-1-19-7-11-2h-18l-12 3-18 8-22 12-23 12-17 7-27 7-19 3-10 1h-41l5 4 5 6 8 7 7 7 9 11 18 18 7 8 11 13 7 7 12 6 16 4h13l27-9 28-12 21-6 8-1h21l13 3 11 6 10 8 7 8 8 13 7 14 6 18 2 9v7l-5 4h-7l-11-7-12-6-17-4h-23l-20 4-16 4v3l4 10 5 23 2 18 2 70 3 18 6 21 7 16 7 10 9 10 16 15 3 6-1 5-9 3h-36l-21-3-16-5-17-7-15-9-12-11-6-8-8-16-5-15-3-19v-10l7-68 2-20-1-18-4-17-7-16-9-15-8-10-9-11-12-14-12-13-2-1 1 21-4 31-6 29-9 40-2 12-1 16v22l2 14 7 18 1 7-5 5h-8l-13-9-12-11-11-12-12-17-12-23-7-21-3-14-2-16-1-19v-71l-2-26-4-20-8-25-9-21-8-15-13-18-9-10-8-8-13-10-17-11-22-14-18-12 15 25 12 23 11 29 5 19 4 19 2 23v25l-2 32-6 42-4 36v31l3 25 4 15 6 14 9 15 9 12 8 9 1 6-6 5-5 1-10-5-13-8-15-10-13-11-10-9-22-22-11-14-11-15-11-19-10-24-7-22-4-20-2-21v-33l3-46 3-35v-46l-3-19-7-26-8-18-8-14-8-10-11-11-13-8-25-10-45-15-36-10-23-6-5-4-1-2v-6l4-4 2-1 11 1 23 5 30 9 31 9 18 4h15l25-5 17-5 23-10 20-10 27-16 38-24 21-12 23-12 20-9 19-6 20-4zm8 18-22 2-19 5-21 8-21 10-24 14-21 13-17 11-21 13-22 12-20 9-22 8-21 6v2l17 9 24 11 10 3h9l18-5 24-11 25-12 22-12 29-15 22-12 31-14 30-10 22-5 21-2h28l16 2 14 2-6-7-10-7-14-8-17-8-21-7-19-4zm49 45-21 2-28 7-24 9-20 9-51 27-21 12-29 14-24 11-18 7 3 3 10 5 15 5 5 1h22l18-2 17-5 21-8 23-11 21-13 19-12 17-11 22-13 17-9 19-8 21-7 25-6 5-3v-2l-23-2zm-266 103-2 1 1 5 8 16 9 27 6 30 1 7v37l-3 29-4 49v49l3 23 7 24 9 21 9 17 8 12 9 12 9 11 9 10 5 6 4 3 2-1-4-6-10-22-6-15-5-15-6-29-1-9v-33l2-34v-71l-3-23-5-22-7-26-10-29-10-24-8-17-8-9zm30 23 5 12 10 22 9 27 6 24 7 35 1 7v67l-2 35-1 22 3 31 3 17 7 24 6 17 9 15h1v-8l-2-15-2-26 2-28 4-37 3-19 3-35v-37l-3-24-4-18-10-29-13-27-12-19-12-17-9-11-6-5zm344 36-22 3-23 5-57 18-27 7-26 5-25 3 5 5 8 5 8 3 14 2h29l17-3 28-7 26-8 21-7 32-8 24-3 20-1h17l-5-5-14-6-16-5-18-3zm49 26-23 1-15 3-20 5-62 19-24 6-24 2-33 1 2 4 7 6 10 6 17 4 16 2h24l21-3 25-6 25-10 21-10 22-12 17-8 14-5 2-4-9-1zm-227 41 2 6 10 26 4 13 6 29 2 27v87l3 21 6 21 8 19 5 5h2l-5-33v-32l2-23 5-41 2-13v-19l-1-20-3-28-5-9-13-12-8-7-10-9-10-8zm57 53 3 20v35l-3 27-3 18-2 29v53l3 22 1 2 6 2 4-32 6-33 5-21 6-27 1-10v-38l-3-14-5-12-9-13-9-8zm220 61-19 4-22 8-21 8-9 3 2 4 6 5 12-2 32-7 12-2 26-1 13 2 6 2-2-5-6-8-9-7-8-3zm11 27-23 3-39 7-2 1 2 5 6 5 10-2 20-6 14-3 8-1h19l12 3 4-1-4-5-12-5-5-1zm-109 6-2 1 1 4 9 10 9 13 9 17 5 13 3 15 1 10 1 47 1 20 4 20 6 17 10 16 14 17 5 4-3-10-9-28-5-24-2-30-1-54-2-16-6-20-6-12-7-9-11-9-11-7-12-5zm0 19 4 27v37l-4 42-3 27v15l3 16 5 14 7 10 8 9 13 9 17 8 18 6 11 1-1-6-13-10-8-8-11-15-8-16-6-16-3-14-1-11-1-65-3-18-7-19-8-14-7-9z" fill="#C0A26F"/>
<path transform="translate(1704,857)" d="m0 0h25l4 3-1 2-10-3h-10l-23 3-10 1 2-2z" fill="#FEFEFE"/>
<path transform="translate(339,908)" d="m0 0h1v10l-5 6-1-3z" fill="#FEFEFE"/>
<path transform="translate(1553,486)" d="m0 0 5 1-3 3h-8l-6-1v-1z" fill="#FEFEFE"/>
</svg>
